<?xml version="1.0" encoding="UTF-8" standalone="no"?><!DOCTYPE svg PUBLIC "-//W3C//DTD SVG 1.1//EN" "http://www.w3.org/Graphics/SVG/1.1/DTD/svg11.dtd"><svg width="100%" height="100%" viewBox="0 0 13892 9775" version="1.1" xmlns="http://www.w3.org/2000/svg" xmlns:xlink="http://www.w3.org/1999/xlink" xml:space="preserve" xmlns:serif="http://www.serif.com/" style="fill-rule:evenodd;clip-rule:evenodd;stroke-linejoin:round;stroke-miterlimit:2;"><g id="Fondo"><path d="M11177.383,35.296c24.275,-8.325 162.792,-23.775 226.45,-23.775c90.575,46.517 141.096,106.221 152.05,116.971c151.442,148.579 24.329,591.433 -17.908,1176.183c-7.775,107.662 54.988,75.317 108.217,66.067c1106.221,-192.175 1643.721,-425.917 1820.458,-98.779c102.004,188.804 33.696,219.946 -1717.454,3156.883c-85.658,143.663 -41.162,153.242 -2.1,314.571c234.196,967.217 183.787,984.192 236.871,1052.213c35,44.85 792.9,-167.554 1016.638,-205.175c659.025,-110.821 729.875,-150.933 863.133,58.2c12.583,19.75 40.308,185.508 11.775,276.904c-146.608,225.283 -148.975,179.188 -474.408,260.571c-378.271,94.6 -386.404,54.804 -1805.483,416.762c-1936.642,493.971 -4285.988,1207.821 -5086.396,1476.425c-190.85,64.046 -2335.442,745.671 -4412.379,1433.221c-94.242,31.196 -555.346,245.592 -706.5,-49.971c-66.329,-129.7 -36.162,-386.021 208.033,-493.5c210.833,-92.796 1821.904,-613.933 1977.783,-660.496c970.9,-290.017 2959.471,-995.037 4408.021,-1411.733c12.287,-3.533 244.846,-70.433 136.987,-82.308c-207.658,-22.863 -337.75,24.696 -556.963,-158.954c-185.067,-155.046 -178.629,50.375 -829.425,397.967c-547.012,292.162 -843.896,292.921 -921.238,293.121c-641.383,1.642 -562.192,-243.883 -694.542,-259.958c-37.2,-4.517 -740.775,751.717 -1387.779,889.283c-354.812,75.438 -634.221,-175.788 -642.167,-403.767c-6.633,-190.288 -44.271,-315.558 267.804,-1020.6c288.733,-652.296 471.846,-594.217 478.617,-715.387c31.667,-566.942 532.154,-460.425 506.783,-539.183c-38.696,-120.121 -97.35,-126.85 1.533,-343.988c89.837,-197.279 -539.296,246.425 -1107.379,875.979c-21.954,24.329 -352.767,268.988 -1597.642,2224.171c-865.108,1358.729 -872.717,1636.783 -1101.729,1710.217c-23.767,7.621 -19.954,12.396 -36.004,22.371l-260.417,0c-277.221,-46.817 -213.217,-383.887 -210.333,-392.817c82.546,-255.342 -3.925,-348.221 1118.167,-3381.383c242.792,-656.296 266.133,-897.038 773.608,-740.592c44.217,13.633 161.7,128.337 144.417,270.304c-31.138,255.783 -527.637,1389.046 -283.042,1005.183c167.667,-263.129 1740.475,-2731.45 3076.088,-2397.6c104.779,26.192 651.008,321.275 218.654,1023.717c-183.708,298.467 -449.321,258.233 -438.108,333.025c5.767,38.462 110.342,255.946 -102.254,531.8c-32.346,41.971 -167.15,143.492 -191.758,185.896c-49.208,84.783 -453.379,851.458 -433.6,892.654c62.542,130.267 508.783,-508.621 946.671,-487.021c11.975,0.592 141.029,6.954 149.171,-14.267c30.038,-78.308 -68.575,-338.663 430.446,-928.567c179.363,-212.029 638.825,-540.558 911.467,-618.579c175.692,-50.279 449.046,-135.096 727.092,181.479c246.908,281.121 -19.075,739.75 7.292,752.588c14.654,7.133 14.971,0.525 189.362,-75.158c101.071,-43.863 -64.592,-344.583 592.092,-971.442c541.667,-517.062 1613.312,-619.287 1533.996,220.521c-11.146,118.029 -225.296,438.087 2.962,305.704c44.896,-26.038 563.846,-551.821 798.275,-128.638c248.8,449.129 -704.988,883.808 -1016.579,1129.7c-109.108,86.1 63.937,26.933 1037.175,-234.583c960.45,-258.079 1062.013,-218.1 1052.858,-324.158c-7.204,-83.462 -244.454,-1302.496 -295.85,-1346.142c-32.475,-27.575 -828.404,-655.804 -900.521,-712.725c-1105.079,-872.237 -1733.517,-1073.321 -1566.054,-1497.383c84.6,-214.229 132.783,-215.412 1987.104,-619.637c230.579,-50.263 278.375,-48.158 285.7,-94.088c121.338,-760.992 9.892,-1487.15 392.254,-1618.3l0.008,0.004Zm-4375.79,6135.321c-25.2,0.104 -232.181,0.971 -313.094,-34.542c-169.408,-74.358 -141.3,-284.167 -284.721,-152.508c-374.425,343.725 -444.525,540.333 -464.863,597.371c-59.45,166.737 323.629,76.342 833.646,-232.196c201.283,-121.767 223.838,-146.9 239.346,-164.183l-10.315,-13.942Z" style="fill:#e452ca;"/><path d="M13687.638,5766.729c-25.062,226.679 -149.333,152.792 -1399.85,463.158c-28.325,7.029 -1901.854,447.683 -3261.317,859.442c-1090.312,330.238 -1097.242,304.704 -3229.142,1006.796c-1276.4,420.35 -1279.562,404.604 -2554.933,825.296c-1534.096,506.038 -1542.725,527.062 -1611.25,488.238c-79.629,-45.113 -117.917,-167.771 1.35,-235.092c118.333,-66.792 560.867,-215.917 1714.279,-599.958c535.688,-178.362 1341.612,-431.454 1458.529,-468.171c1116.65,-350.675 1106.425,-377.988 2222.792,-727.325c2510.296,-785.538 3845.079,-1102.8 4183.454,-1183.229c228.708,-54.363 332.887,-48.383 302.654,-187.275c-79.45,-365 -56.071,-368.287 -260.642,-1319.567c-39.908,-185.583 -20.271,-203.338 -168.1,-321.167c-1083.042,-863.25 -1992.929,-1505.512 -2170.358,-1630.754c-12.175,-8.596 -468.833,-271.15 -99.3,-410.933c41.217,-15.592 488.112,-137.604 642.679,-161.829c131.629,-20.633 1394.579,-367.046 1473.588,-283.446c10.608,11.225 73.783,220.521 -47.658,245.771c-134.679,28 -1264.442,262.875 -1670.696,406.675c-52.379,18.542 10.592,37.017 893.496,691.296c282.117,209.062 898.429,702.304 1092.492,870.279c71.471,61.862 94.179,97.254 145.567,18.417c82.538,-126.621 1325.829,-2187.962 1440.725,-2378.454c9.913,-16.433 89.888,-122.671 5.587,-105.508c-158.879,32.346 -814.796,174.833 -885.608,190.217c-313.171,68.033 -569.342,146.579 -587.312,-47c-18.133,-195.308 500.25,-202.763 1492.892,-444.858c278.392,-67.896 581.196,-135.208 423.958,181.358c-90.6,182.404 -1557.054,2624.025 -1684.504,2821.854c-144.763,224.7 70.042,603.533 191.087,1365.404c21.254,133.779 56.783,288.167 62.513,313.054c13.504,58.688 115.188,15.621 518.162,-74.142c1137.446,-253.358 1345.846,-314.212 1362.083,-204.608c1.767,11.929 1.021,24.142 2.788,36.071l-0.004,-0.008Z" style="fill:#f9c5f6;"/><path d="M5041.854,4673c-18.117,370.083 -441.979,751.646 -549.883,469.438c-39.9,-104.354 284.658,-302.592 222.996,-520.408c-12.392,-43.775 -394.213,-188.304 -1345.867,766.192c-1020.229,1023.275 -1540.787,1968.125 -2302.525,3168.838c-480.575,757.521 -546.733,1162.046 -789.621,1009.025c-100.717,-63.454 -27.658,-272.767 249.333,-1141.021c21,-65.825 940.438,-2826.642 1093.879,-2980.029c114.167,-114.129 281.9,-21.029 240.104,114.762c-145.692,473.367 -190.733,456.571 -903.842,2517.433c-10.021,28.958 -186.963,455.271 -78.554,288.954c56.787,-87.125 21.796,-107.829 673.792,-1111.746c484.612,-746.183 1965.85,-3111.725 3236.683,-2937.413c236.292,32.412 251.642,321.067 253.5,355.975l0.004,0Z" style="fill:#f9c5f6;"/><path d="M7505.45,6061.883c0.875,-75.704 -10.2,-180.587 59.233,-348.271c443.496,-1071.062 1811.9,-1263.046 1621.888,-535.725c-62.713,240.046 -454.033,545.012 -512.367,582.7c-574.012,370.883 -836.821,229 -846.642,227.958c-52.754,-5.6 -37.946,203.525 108.258,291.808c111.05,67.054 538.167,-21.546 638.037,-62.5c920.179,-377.333 1190.908,-943.492 1422.933,-831.658c204.354,98.496 -69.862,298.525 -456.388,598.192c-514.821,399.129 -1006.179,577.504 -1157.858,589.946c-275.779,22.625 -852.563,124.242 -877.096,-512.45Z" style="fill:#f9c5f6;"/><path d="M10178.633,2844.096c539.258,360.188 945.792,786.388 999.025,751.671c19.521,-12.729 453.392,-771.879 449.038,-779.008c-9.788,-16.017 -418.337,-24.013 -424.271,34.267c-9.892,97.117 25.042,545.671 -194.908,443.742c-155.254,-71.95 -79.675,-141.179 -9.821,-1556.329c3.533,-71.583 45.529,-498.846 52.279,-642.467c11.933,-253.917 39.379,-249.604 51.071,-503.375c14.608,-317.079 103.65,-361.404 132.167,-375.6c239.104,-119.029 165.033,133.438 160.875,307.067c-0.508,21.146 -194.708,2121.238 -165.925,2137.621c87.213,49.642 798.396,-77.479 716.725,119.967c-36.679,88.675 -595.754,1145.988 -697.792,1155.521c-83.196,7.771 -559.729,-467.604 -1289.704,-992.792c-46.979,-33.8 -221.296,-137.729 -171.6,-269.396c59.117,-156.617 993.371,-119.592 1077.45,-47.679c33.788,28.896 97.271,175.079 -49.442,178.729c-574.063,14.279 -574.654,4.158 -623.425,14.65c-8.538,1.838 -3.204,21.579 -11.742,23.417l-0,-0.004Z" style="fill:#f9c5f6;"/><path d="M5213.813,6617.454c10.1,-122.633 16.229,-129.308 49.367,-241.5c191.1,-647 1278.367,-1443.454 1637.942,-1054.846c286.429,309.55 -97.746,771.554 -336.233,628.379c-218.162,-130.975 30.721,-270.979 58.262,-309.571c173.754,-243.483 -143.858,-157.308 -404.113,48.05c-779.046,614.717 -661.05,954.154 -659.175,1068.225c1.521,92.583 135.408,95.646 149.625,95.967c796.217,18.2 1748.421,-1103.867 1729.183,-599.796c-1.779,46.65 -3.975,104.092 -432.738,391.488c-585.558,392.492 -1059.421,504.704 -1157.671,503.821c-233.333,-2.1 -609.983,-13.783 -634.45,-530.217Z" style="fill:#f9c5f6;"/><path d="M3618.417,7433.704c12.1,67.246 46.812,57.425 248.171,-40.242c526.263,-255.254 813.904,-695.788 1027.629,-568.746c32.5,19.317 34.204,111.121 -23.054,170.271c-99.642,102.929 -941.675,869.267 -1330.854,781.738c-107.588,-24.196 -247.804,-40.008 -248.396,-343.325c-0.592,-302.438 424.7,-1363.558 663.954,-1351.954c232.058,11.254 142.325,185.979 133.437,203.283c-68.017,132.433 -320.233,553.821 -441.671,993.7c-30.171,109.292 -25.567,109.692 -29.212,155.275l-0.004,-0Z" style="fill:#f9c5f6;"/><path d="M12306.15,6054.342c200.671,-56.475 1061.804,-236.763 1129.817,-245.908c149.388,-20.092 4.329,48.333 0.475,49.092c-679.954,133.617 -1251.621,293.892 -1389.417,314.75c-240.179,36.354 -712.521,179.808 -922.587,229.354c-1752.404,413.312 -4625.142,1336.088 -4687.387,1358.142c-465.075,164.754 -2518.433,811.167 -2794.679,903.863c-92.833,31.15 -967.387,324.604 -1161.142,387.258c-733.733,237.267 -771.492,304.975 -774.45,240.175c-1.404,-30.758 143.908,-114.171 2841.358,-983.142c2394.762,-771.462 2391.796,-779.833 2600.892,-844.121c705.396,-216.863 705.975,-212.146 767.092,-231.479c1963.162,-621.113 3945.842,-1089.788 4390.025,-1177.979l0.004,-0.004Z" style="fill:#f19ee5;"/><path d="M410,9409.225c476.075,-897.417 491.621,-887.35 1022.192,-1754.029c1793.517,-2929.675 2851.525,-3179.667 2942.137,-3201.917c697.913,-171.379 602.996,394.55 333.679,609.488c-216.887,173.096 90.037,-147.975 122.75,-283.85c3.933,-16.342 118.204,-310.242 -249.7,-306.142c-203.358,2.267 -620.1,201.604 -949.333,485.046c-1157.65,996.642 -1915.679,2387.596 -2566.512,3366.504c-175.067,263.317 -496.829,868.388 -537.671,945.2c-7.75,14.575 -158.867,298.75 -163.812,125.513c-5.325,-186.6 1257.292,-3818.021 1334.904,-3854.546c90.321,-42.504 -10.75,58.792 -871.838,2533.604c-3.042,8.738 -124.013,421.842 -296.233,902.562c-143.088,399.4 -147.833,409.192 -120.558,432.567l-0.004,0Z" style="fill:#f19ee5;"/><path d="M7695.663,6148.583c58.375,451.408 920.988,292.85 1551,-162.1c493.987,-356.725 1090.342,-848.108 635.871,-439.825c-1502.996,1350.238 -2234.221,927.092 -2236.333,619.546c-1.608,-233.692 -49.513,-496.775 481.496,-1001.575c274.612,-261.058 532.567,-286.608 584.583,-291.758c142.696,-14.133 151.367,-42.471 274.017,32.958c370.633,227.938 -487.95,1027.438 -1053.513,995.775c-144.712,-8.1 163.021,-59.212 225.975,-79.038c669.079,-210.692 1219.846,-954.25 572.25,-899.362c-539.633,45.738 -1029.042,787.896 -1034.992,982.271c-0.596,19.442 -0.025,18.008 -0.35,243.113l-0.004,-0.004Z" style="fill:#f19ee5;"/><path d="M7949.258,5757.129c-3.9,-0.546 -83.696,18 -44.158,-55.825c172.258,-321.646 707.942,-736.2 930,-665.746c197.288,62.592 -329.954,641.242 -885.842,721.571Z" style="fill:#e452ca;"/><path d="M6813.3,5575.758c-1.633,-16.896 -14.371,-148.613 -112.421,-179.929c-35.338,-11.288 -178.442,-56.988 -448.488,117.85c-779.854,504.908 -1030.904,1228.962 -701.521,1402.85c520.304,274.675 1705.412,-709.875 1739.383,-646.863c7.808,14.488 -579.604,516.658 -1267.146,717.625c-219.237,64.083 -493.479,52.917 -601.362,-114.875c-403.425,-627.454 943.596,-1645.304 1243.133,-1541.204c336.463,116.933 202.988,459.167 17.613,494.017c-172.333,32.4 109.254,-83.767 130.817,-249.471l-0.008,0Z" style="fill:#f19ee5;"/><path d="M9042.088,2390.95c69.429,-17.246 483.046,-119.992 869.192,-210.058c672.55,-156.875 672.337,-157.796 728.204,-161.538c274.708,-18.412 -68.471,41.946 -434.333,131.129c-98.912,24.113 -1018.325,248.233 -1233.567,312.742c-117.142,35.108 23.654,116.892 274.929,288.908c955.121,653.867 1973.038,1497.467 1989.6,1538.717c33.767,84.1 -269.288,-165.137 -290.483,-182.571c-1496.825,-1231.004 -1739.954,-1248.304 -2110.721,-1588.583c-83.962,-77.058 109,-106.162 207.183,-128.746l-0.004,0Z" style="fill:#f19ee5;"/><path d="M12584.758,1555.408c-64.971,14.783 -1090.479,222.275 -1094.925,221.983c-242.1,-16.046 670.246,-178.671 922.596,-241.704c172.992,-43.208 701.867,-152.571 727.817,-126.954c18.579,18.342 2.3,23.558 -339.921,612.45c-266.104,457.908 -710.917,1177.279 -1283.008,2143.425c-6.267,10.579 -124.487,210.238 -108.354,109.017c13.929,-87.375 150.642,-287.679 1045.317,-1758.717c600.471,-987.304 660.392,-1057.237 564.392,-1059.283c-29.142,-0.621 -353.475,90.708 -433.917,99.788l0.004,-0.004Z" style="fill:#f19ee5;"/><path d="M3410.667,7381.158c104.696,-559.017 489.008,-1163.025 527.225,-1167.975c66.229,-8.579 13.033,36.413 -114.133,286.196c-1085.463,2132.113 782.988,510.267 883.183,437.646c69.858,-50.633 43.2,18.258 40.371,20.525c-87.283,70.033 -934.15,856.417 -1258.596,664.021c-103.554,-61.408 -79.146,-175.883 -78.054,-240.408l0.004,-0.004Z" style="fill:#f19ee5;"/><path d="M4033.225,5732.017c29.558,-269.113 417.142,-274.129 438.738,-103.283c35.492,280.804 -417.4,508.838 -438.738,103.283Z" style="fill:#f9c5f6;"/><path d="M11150.529,2051.388c-1.054,83.492 -11.558,81.733 -67.421,1041.571c-3.496,60.075 -55.008,95.804 -51.267,35.542c6.038,-97.262 65.35,-1052.9 82.925,-1215.288c36.654,-338.654 109.063,-1591.5 166.9,-1577.558c27.787,6.7 -36.008,407.508 -43.379,639.033c-2.396,75.308 -67.296,711.7 -69.954,816.096c-0.533,20.892 -2.8,109.987 -17.808,260.6l0.004,0.004Z" style="fill:#f19ee5;"/><path d="M11675.121,5958.067c1.717,7.092 34.229,141.2 -13.775,90.142c-15.446,-16.429 -311.921,-1474.846 -310.879,-1479.896c23.067,-111.821 27.629,50.233 324.654,1389.754Z" style="fill:#f19ee5;"/><path d="M11355.633,3616.483c-106.046,171.946 -130.642,166.1 -134.575,150.438c-4.921,-19.588 537.096,-935.362 546.3,-937.446c69.3,-15.7 11.308,43.7 -411.725,787.008Z" style="fill:#f19ee5;"/><path d="M10152.379,2921.179c790.1,615.875 790.542,614 852.146,675.417c202.379,201.771 -224.008,-142.479 -387.988,-270.954c-180.579,-141.479 -179.754,-138.758 -361.437,-278.946c-10.271,-7.925 -680.692,-542.858 -102.721,-125.517Z" style="fill:#f1a2e6;"/><path d="M10344.808,2726.633c-196.317,0.179 -397.692,12.154 -343.283,-27.492c36.321,-26.471 1684.392,28.262 343.283,27.492Z" style="fill:#f19fe5;"/><path d="M4327.133,5680.062c-50.367,159.779 -182.587,163.596 -140.717,71.5c11.412,-25.104 112.096,-184.308 140.717,-71.5Z" style="fill:#f19ee5;"/></g></svg>