<?xml version="1.0" encoding="UTF-8" standalone="no"?><!DOCTYPE svg PUBLIC "-//W3C//DTD SVG 1.1//EN" "http://www.w3.org/Graphics/SVG/1.1/DTD/svg11.dtd"><svg width="100%" height="100%" viewBox="0 0 2125 1492" version="1.1" xmlns="http://www.w3.org/2000/svg" xmlns:xlink="http://www.w3.org/1999/xlink" xml:space="preserve" xmlns:serif="http://www.serif.com/" style="fill-rule:evenodd;clip-rule:evenodd;stroke-linejoin:round;stroke-miterlimit:2;"><g id="Fondo"><path d="M1706.25,0l37.5,0c1.023,1.253 -0.069,3.505 0.954,4.758c2.221,2.72 7.225,0.577 18.829,18.804c17.721,27.837 -13.137,184.474 -3.397,187.468c12.082,3.714 222.867,-59.501 267.805,-40.078c13.463,5.819 36.129,28.725 25.413,56.614c-11.504,29.94 -210.725,358.805 -248.718,423.542c-13.263,22.6 -23.747,32.251 -20.579,47.098c15.213,71.297 19.245,70.155 33.355,141.67c6.709,34.004 6.021,33.983 6.605,36.927c1.55,7.809 6.057,10.019 98.612,-13.435c8.093,-2.051 112.075,-22.935 129.327,-24.765c17.731,-1.881 54.237,-7.36 63.604,34.123c14.099,62.444 -73.392,68.842 -129.754,81.36c-35.273,7.834 -209.526,46.536 -438.268,109.177c-9.298,2.546 -36.671,5.362 -65.918,15.852c-32.978,11.828 -32.893,11.039 -66.73,19.263c-4.265,1.037 -1.905,2.446 -1.892,3.66c0.087,8.018 6.255,2.781 22.933,16.078c16.339,13.027 22.186,-26.813 66.2,-36.663c8.16,-1.826 60.941,-22.001 75.636,32.954c7.959,29.765 -10.678,67.428 3.499,58.543c10.218,-6.404 12.985,-19.334 66.56,-29.799c30.51,-5.959 50.763,10.322 54.243,13.119c20.197,16.236 7.961,-31.875 45.667,-38.44c24.32,-4.234 30.776,7.141 45.187,-4.342c49.724,-39.622 89.48,-24.471 103.179,6.638c14.683,33.341 17.7,-97.455 89.099,-71.651c4.548,1.644 17.268,11.933 21.457,3.893c32.297,-61.976 105.363,-31.528 85.247,45.095c-2.886,10.992 -8.463,16.834 5.766,18.732c15.81,2.11 13.006,7.889 27.325,15.055l-0,50c-10.347,16.515 -26.225,56.109 -81.047,67.734c-13.398,2.841 -21.831,-6.923 -36.511,4.594c-54.538,42.786 -72.612,11.464 -95.591,29.313c-79.148,61.477 -108.325,-2.785 -117.917,2.899c-7.219,4.278 -20.572,64.405 -75.417,55.154c-29.481,-4.973 -26.581,7.209 -53.386,20.62c-57.092,28.563 -80.203,2.102 -110.003,22.213c-56.835,38.355 -97.188,11.284 -109.95,-11.722c-5.241,-9.448 -7.506,-15.978 -13.16,-6.988c-0.866,1.377 -2.234,6.883 -10.529,19.323c-7.911,11.865 -47.736,45.147 -80.869,4.14c-17.538,-21.706 -15.118,68.223 -79.912,57.634c-61.944,-10.123 -5.456,-151.119 -14.164,-159.269c-1.8,-1.685 -59.384,-0.964 -53.637,-51.561c3.499,-30.801 39.652,-69.152 44.396,-74.185c23.266,-24.68 -48.51,8.675 -513.775,155.448c-214.992,67.822 -451.771,154.175 -479.778,148.003c-48.498,-10.689 -56.387,-73.421 -3.449,-98.462c54.26,-25.666 56.444,-19.851 740.646,-244.105c244.495,-80.136 250.392,-76.073 262.288,-78.961l0.411,-3.47c-0.222,-2.023 2.793,-0.078 2.565,-2.153c-0.027,-0.245 -0.053,-0.48 -2.913,-1.019c-28.571,-5.389 -35.599,17.074 -92.675,-24.066c-21.283,-15.341 -22.936,-3.268 -51.496,16.464c-231.458,159.913 -302.132,65.99 -315.133,54.086c-15.327,-14.034 -9.659,13.15 -113.927,83.572c-117.498,79.356 -161.992,43.26 -175.047,33.938c-77.647,-55.443 31.658,-264.018 74.593,-297.214c17.318,-13.389 9.166,-17.896 15.735,-38.643c15.293,-48.292 55.183,-50.813 66.93,-53.561c13.1,-3.064 -5.558,-14.636 1.66,-45.965c0.551,-2.39 14.084,-27.745 -9.427,-11.74c-147.335,100.304 -252.633,256.947 -269.191,280.893c-164.066,237.275 -232.688,369.302 -257.943,412.913c-16.101,27.804 -17.892,26.615 -44.459,44.558l-37.5,0c-6.411,-4.744 -15.352,-7.816 -35.417,-35.413l-0,-41.667c2.157,-3.663 3.596,-2.665 5.09,-8.647c26.938,-107.807 171.606,-517.251 198.444,-573.994c24.479,-51.755 80.209,-50.187 102.143,-12.886c6.19,10.527 19.13,27.547 -51.955,187.725c-4.409,9.935 2.631,14.531 6.265,7.457c84.529,-164.56 256.931,-308.677 264.414,-314.432c183.058,-140.784 289.367,-51.663 270.054,35.76c-18.952,85.787 -85.016,95.235 -88.385,99.732c-10.001,13.35 34.746,34.692 -32.913,100.371c-29.882,29.008 -78.901,148.845 -78.629,149.388c3.079,6.139 4.033,-2.215 71.273,-47.842c67.871,-46.055 75.07,-23.788 90.198,-27.76c13.604,-3.572 -15.769,-116.839 178.809,-225.177c120.697,-67.202 202.653,56.639 137.886,126.004c-26.861,28.768 15.126,-0.468 29.474,-8.052c13.571,-7.173 11.417,-33.818 26.805,-61.634c91.798,-165.934 249.631,-170.686 288.141,-116.358c46.236,65.227 -19.716,125.629 -20.213,131.979c-0.979,12.528 9.483,-0.583 54.962,-37.741c84.698,-69.201 110.392,0.183 106.5,33.281c-4.436,37.729 -122.665,116.822 -174.218,140.166c-17.179,7.779 0.24,9.059 0.903,8.81c24.298,-9.14 94.232,-35.448 312.934,-85.886c22.101,-5.097 20.375,-11.424 15.688,-33.4c-38.199,-179.114 -36.218,-180.703 -42.437,-185.82c-140.894,-115.934 -305.595,-231.028 -332.899,-250.109c-6.991,-4.885 -75.59,-52.823 -31.999,-101.694c34.538,-38.722 255.27,-67.79 329.147,-87.361c12.633,-3.347 10.798,-60.126 22.732,-170.84c7.678,-71.231 25.41,-70.476 48.033,-85.627Zm-812.119,1012.056c71.239,-19.373 109.329,-52.395 130.126,-62.677c30.064,-14.864 -11.251,-7.777 -18.111,-9.019c-41.736,-7.553 -43.803,-33.699 -50.091,-36.241c-2.934,-1.186 -47.568,35.696 -77.25,86.417c-18.84,32.194 12.517,21.9 15.327,21.52Zm851.863,-664.277c-0.182,2.471 -2.105,28.652 0.151,30.975c13.76,14.168 20.239,-10.65 81.252,9.653c10.23,3.404 25.486,-37.387 57.075,-82.68c4.18,-5.993 2.118,-10.653 -2.962,-9.641c-46.086,9.187 -46.071,8.178 -92.143,17.541c-31.178,6.336 -40.674,2.592 -43.374,34.152Zm-142.703,18.295c-0.048,4.888 -0.284,4.927 -0.052,5.28c0.646,0.981 37.794,5.604 37.543,-6.842c-0.06,-3.001 -1.324,-7.9 -37.492,1.563Z" style="fill:#eb50d3;"/><path d="M1675.574,289.28c-0.043,-32.696 11.819,-237.393 27.648,-252.658c7.45,-7.185 31.655,-15.663 34.373,-0.866c3.223,17.548 -6.816,89.064 -8.331,120.437c-1.758,36.41 -8.766,95.725 -9.747,104.025c-2.796,23.662 0.648,37.401 -6.247,83.307c-3.732,24.848 -0.139,24.853 -4.16,50.019c-3.896,24.385 60.968,6.256 97.203,12.374c32.144,5.428 -0.907,45.419 -48.352,130.462c-36.474,65.379 -45.374,66.457 -59.177,56.14c-15.963,-11.931 -13.212,-15.373 -195.329,-154.615c-30.209,-23.097 -13.732,-46.165 23.621,-46.397c37.56,-0.233 133.841,-10.871 132.957,19.14c-0.106,3.589 -0.489,3.423 -3.506,12.966c-8.216,2.66 -15.749,7.49 -99.882,4.761c-0.447,0.23 -5.583,2.874 -5.583,2.874c0.051,1.324 2.638,1.604 2.689,2.928c76.683,51.954 137.039,116.241 148.942,110.573c5.998,-2.856 42.508,-74.765 64.378,-106.208c6.247,-8.981 0.029,-9.999 -10.823,-9.896c-17.045,0.163 -49.363,-3.209 -49.999,6.769c-0.465,7.294 6.236,86.721 -33.759,63.153c-4.958,-2.921 -17.425,-10.268 -8.057,-71.475c9.912,-24.95 -1.184,-26.378 5.524,-79.006c2.324,-18.231 4.756,-27.286 -13.49,-24.068c-66.227,11.678 -146.592,33.47 -242.138,56.452c-1.218,0.293 -19.575,4.708 -10.57,11.55c0.049,0.037 180.966,124.462 295.404,225.287c14.714,12.963 19.303,23.373 29.556,6.588c18.151,-29.715 225.219,-368.706 225.595,-372.228c1.064,-9.958 -4.774,-4.161 -14.434,-2.238c-190.741,37.979 -198.283,51.553 -211.396,29.945c-0.539,-0.888 -6.545,-18.645 3.029,-26.905c10.79,-9.308 101.607,-25.086 187.534,-45.088c98.824,-23.005 102.411,-9.412 104.545,-1.324c4.393,16.65 -104.978,186.507 -186.662,326.1c-79.195,135.341 -91.503,133.958 -83.659,165.489c17.162,68.991 42.662,215.954 49.808,219.4c8.98,4.331 257.87,-63.045 277.167,-50.933c14.377,9.024 2.095,31.784 -11.427,36.134c-13.838,4.452 -397.943,90.047 -696.297,177.566c-517.549,151.817 -1107.735,361.217 -1124.162,354.506c-21.371,-8.731 -23.222,-36.305 32.721,-53.532c39.312,-12.105 403.088,-132.35 438.117,-143.928c625.437,-206.735 807.505,-250.117 879,-267.153c12.328,-2.938 150.831,-35.939 153.595,-38.792c7.94,-8.195 -19.405,-116.133 -22.98,-145.742c-5.11,-42.331 -10.54,-41.103 -16.786,-83.37c-3.013,-20.388 -3.692,-24.986 -194.631,-168.769c-188.136,-141.672 -207.727,-139.051 -195.335,-164.741c9.701,-20.111 98.938,-34.012 142.241,-46.35c11.635,-3.315 167.772,-38.488 183.662,-38.727c14.232,-0.215 15.761,0.005 20.312,10.939c-0.089,1.337 -1.108,16.707 -1.108,16.707c1.875,2.073 5.726,1.468 7.602,3.54c1.353,-5.656 0.863,-23.113 0.807,-25.123Z" style="fill:#fdc9f9;"/><path d="M716.457,710.408c-0.949,-4.334 1.375,-14.568 -35.47,-9.893c-13.669,1.734 -29.719,10.325 -32.129,11.615c-191.797,102.656 -383.287,421.008 -478.885,574.041c-75.304,120.547 -70.705,126.256 -86.636,152.095c-20.87,33.85 -46.604,24.594 -50.152,9.294c-9.905,-42.713 187.132,-577.866 199.715,-603.002c20.373,-40.695 50.271,-21.01 49.155,-4.911c-0.732,10.563 -140.263,390.876 -149.403,412.839c-38.666,92.913 17.875,-20.819 72.368,-105.355c44.956,-69.741 297.708,-491.302 497.103,-493.052c123.112,-1.081 35.653,165.365 -7.578,142.121c-37.174,-19.988 17.497,-37.685 21.911,-85.792Z" style="fill:#fdc9f9;"/><path d="M1141.453,918.746c7.424,-139.07 168.762,-213.641 223.222,-196.137c76.377,24.548 29.627,126.547 -96.698,181.668c-48.765,21.278 -80.619,-0.827 -80.496,14.51c0.051,6.332 0.43,53.619 69.043,38.715c133.216,-28.937 199.025,-112.743 242.387,-136.984c21.063,-11.775 35.549,6.654 33.53,19.263c-3.024,18.887 -163.773,147.645 -250.934,159.819c-15.978,2.232 -70.499,13.997 -103.658,-7.105c-39.889,-25.385 -36.173,-70.602 -36.397,-73.749Z" style="fill:#fdc9f9;"/><path d="M1296.379,1198.78c-9.455,0.661 -7.361,4.028 -12.484,10.216c-8.475,10.237 -9.029,9.481 -17.479,19.723c-2.531,3.067 -33.844,41.021 -46.215,18.303c-10.227,-18.782 84.114,-141.497 99.764,-78.567c2.024,8.137 -5.383,50.712 13.941,16.086c44.343,-79.458 84.632,-58.522 86.135,-32.57c2.56,44.192 -5.106,58.561 -4.585,62.322c2.094,15.119 14.959,-17.384 21.892,-27.535c61.764,-90.424 75.876,-84.353 98.323,-82.254c43.524,4.069 -30.05,154.534 -35.281,214.052c-3.692,42.017 24.835,0.723 39.179,8.551c29.896,16.316 -59.828,86.112 -75.47,12.563c-6.739,-31.686 28.438,-149.827 42.921,-187.575c5.663,-14.761 -5.26,-5.892 -5.609,-5.377c-101.426,149.93 -88.484,223.811 -120.214,230.157c-37.01,7.402 -14.282,-71.739 -1.231,-129.256c5.642,-24.864 29.616,-109.005 6.412,-82.111c-67.111,77.786 -83.651,234.133 -109.002,249.5c-50.399,30.551 17.682,-165.244 19.002,-216.228Z" style="fill:#fdc9f9;"/><path d="M1296.379,1198.78c-9.455,0.661 -7.361,4.028 -12.484,10.216c-8.475,10.237 -9.029,9.481 -17.479,19.723c-2.531,3.067 -33.844,41.021 -46.215,18.303c-10.227,-18.782 84.114,-141.497 99.764,-78.567c2.024,8.137 -5.383,50.712 13.941,16.086c44.343,-79.458 84.632,-58.522 86.135,-32.57c2.56,44.192 -5.106,58.561 -4.585,62.322c2.094,15.119 14.959,-17.384 21.892,-27.535c61.764,-90.424 75.876,-84.353 98.323,-82.254c43.524,4.069 -30.05,154.534 -35.281,214.052c-3.692,42.017 24.835,0.723 39.179,8.551c29.896,16.316 -59.828,86.112 -75.47,12.563c-6.739,-31.686 28.438,-149.827 42.921,-187.575c5.663,-14.761 -5.26,-5.892 -5.609,-5.377c-101.426,149.93 -88.484,223.811 -120.214,230.157c-37.01,7.402 -14.282,-71.739 -1.231,-129.256c5.642,-24.864 29.616,-109.005 6.412,-82.111c-67.111,77.786 -83.651,234.133 -109.002,249.5c-50.399,30.551 17.682,-165.244 19.002,-216.228Z" style="fill:#fdc9f9;"/><path d="M881.258,1041.484c46.906,-1.845 93.837,-26.1 207.588,-98.873c47.574,-30.436 50.485,13.401 32.845,28.892c-52.254,45.886 -128.973,82.051 -140.989,87.715c-9.533,4.494 -79.475,37.463 -128.873,27.334c-85.455,-17.524 -74.499,-137.607 14.386,-215.985c169.563,-149.518 207.918,-38.496 199.454,-9.88c-20.214,68.341 -83.7,50.505 -81.039,24.637c0.548,-5.324 18.837,-23.896 20.692,-25.78c31.074,-31.555 -18.499,-29.195 -64.699,10.468c-91.494,78.548 -96.645,105.804 -94.478,157.268c0.774,18.375 30.899,14.276 35.114,14.203Z" style="fill:#fdc9f9;"/><path d="M1707.339,1283.215c46.926,-55.528 24.91,-151.586 60.445,-137.492c13.179,5.227 9.149,35.58 18.848,20.333c17.983,-28.271 75.747,-71.986 83.807,-30.942c5.234,26.657 -56.584,153.202 5.33,94.735c63.296,-59.772 67.712,-172.289 101.666,-157.542c21.003,9.122 -51.843,143.906 -21.36,141.314c5.698,-0.485 43.097,-36.09 58.681,-82.304c10.038,-29.77 22.629,-103.843 49.051,-78.488c18.651,17.898 -65.343,190.351 7.482,118.494c0.139,-0.137 33.102,-43.619 29.732,-15.236c-2.81,23.67 -51.529,82.099 -80.993,52.993c-7.034,-6.948 -9.331,-7.913 -15.555,-0.145c-56.092,70.012 -74.657,23.396 -85.748,22.485c-4.41,-0.362 -54.865,69.184 -90.469,40.03c-31.549,-25.834 25.261,-135.223 3.636,-126.032c-32.029,13.613 -74.856,147.49 -88.4,160.566c-19.229,18.565 -46.805,-5.654 -36.153,-22.769Z" style="fill:#fdc9f9;"/><path d="M549.853,1127.158c0.592,2.586 -0.801,5.369 -0.208,7.955c1.01,4.41 4.861,7.728 53.321,-18.839c64.239,-35.218 128.542,-109.709 143.907,-72.153c11.788,28.814 -163.241,150.513 -203.274,142.153c-79.25,-16.549 -41.911,-99.698 3.54,-197.07c21.281,-45.59 41.555,-78.758 71.761,-58.14c25.616,17.485 -44.918,79.127 -69.046,196.094Z" style="fill:#fdc9f9;"/><path d="M1535.657,1003.967c41.455,-10.364 511.071,-127.769 520.058,-121.796c12.372,8.222 -35.58,15.74 -36.894,15.998c-97.46,19.071 -222.58,50.982 -350.294,82.202c-131.51,32.147 -480.404,134.151 -579.45,165.675c-38.377,12.214 -300.455,95.627 -478.96,155.039c-27.904,9.287 -348.227,115.901 -348.936,115.694c-22.592,-6.591 78.856,-36.359 165.52,-65.539c269.47,-90.729 410.131,-132.295 546.385,-177.894c192.827,-64.531 220.435,-67.716 266.78,-82.852c70.626,-23.067 284.652,-83.186 295.793,-86.526Z" style="fill:#fc95f0;"/><path d="M1664.582,1170.959c4.803,0.454 52.613,4.972 18.534,57.38c-47.592,73.189 -108.47,77.642 -80.76,84.673c23.501,5.963 71.967,-41.069 77.125,-46.074c34.677,-33.65 23.194,8.353 22.277,10.081c-33.782,63.675 -75.393,69.704 -112.179,68.971c-89.066,-1.774 -29.246,-177.11 75.003,-175.031Z" style="fill:#fdc9f9;"/><path d="M1656.527,423.615c2.721,1.216 2.937,0.159 5.19,2.32c1.123,1.078 1.495,-0.011 2.715,1.159c-9.367,61.207 3.1,68.554 8.057,71.475c39.995,23.569 33.294,-55.859 33.759,-63.153c0.636,-9.978 32.954,-6.606 49.999,-6.769c10.852,-0.104 17.07,0.914 10.823,9.896c-21.869,31.443 -58.38,103.352 -64.378,106.208c-11.903,5.668 -72.259,-58.618 -148.942,-110.573c0.965,-1.934 1.929,-3.868 2.894,-5.802c84.133,2.729 91.666,-2.101 99.882,-4.761Z" style="fill:#eb50d3;"/><path d="M710.283,683.52c-39.727,0.52 -100.447,-9.043 -289.772,203.44c-20.434,22.933 -212.192,280.928 -342.012,524.122c-1.29,2.417 -20.038,37.537 -23.298,25.107c-1.384,-5.277 3.678,-3.734 32.626,-59.888c32.43,-62.906 239.452,-406.448 356.04,-528.272c99.126,-103.578 157.555,-162.306 257.983,-176.832c35.834,-5.183 70.037,47.842 13.773,99.334c-11.514,10.537 -9.917,-1.199 -9.484,-1.839c0.73,-1.078 10.763,-9.933 19.931,-25.452c7.109,-12.032 26.068,-56.175 -15.788,-59.72Z" style="fill:#fc95f0;"/><path d="M1509.929,839.482c-15.361,16.537 -90.209,77.369 -133.893,102.4c-129.4,74.146 -228.508,51.765 -212.41,-40.18c1.881,-10.744 10.43,-59.571 72.545,-115.448c89.28,-80.314 197.128,-47.521 119.835,36.446c-79.158,85.994 -175.992,84.12 -153.07,68.36c13.454,-9.25 22.908,14.571 107.205,-39.4c43.775,-28.027 106.246,-111.52 17.478,-102.102c-74.675,7.923 -176.82,121.341 -153.788,193.777c9.054,28.474 47.127,35.026 73.508,31.927c7.529,-0.885 39.124,1.944 108.295,-32.819c63.755,-32.042 144.313,-107.748 150.619,-106.659c1.713,0.296 1.964,3.401 3.677,3.697Z" style="fill:#fc95f0;"/><path d="M1030.176,863.735c20.203,-32.368 -11.828,-48.245 -36.575,-41.803c-97.48,25.377 -219.664,184.787 -152.613,228.103c71.629,46.274 261.126,-98.618 265.407,-98.328c21.836,1.48 -85.387,69.832 -145.749,96.672c-55.892,24.852 -103.187,21.153 -112.848,16.443c-102.213,-49.825 37.08,-222.655 146.237,-252.658c40.572,-11.151 80.642,46.451 25.041,74.17c-7.808,3.892 -12.44,-0.965 -6.284,-6.256c15.299,-13.148 14.718,-13.546 17.384,-16.343Z" style="fill:#fc95f0;"/><path d="M1639.378,302.767c-0.071,2.271 -0.143,4.542 -0.214,6.812c-43.584,7.438 -276.798,65.911 -280.99,68.337c-8.101,4.689 41.783,34.286 51.564,41.768c8.119,6.21 51.562,35.93 56.072,39.015c46.611,31.887 174.398,132.293 195.763,150.412c43.348,36.761 48.752,36.215 45.048,43.789c-8.707,-4.027 -23.177,-10.72 -95.631,-72.359c-89.801,-76.396 -269.224,-189.072 -267.473,-203.509c1.314,-10.832 273.522,-74.307 295.861,-74.266Z" style="fill:#fc97f0;"/><path d="M1993.813,212.341c6.63,1.613 10.113,-0.357 9.064,6.571c-1.258,8.311 -180.667,302.279 -181.29,303.247c-76.977,119.712 -74.818,135.567 -80.973,125.338c-6.683,-11.106 253.156,-414.74 248.163,-423.922c-1.744,-3.208 -2.921,-2.428 -45.157,6.632c-187.089,40.132 -205.146,47.179 -195.81,34.305c2.476,-3.415 222.429,-50.252 246.003,-52.17Z" style="fill:#fc95f0;"/><path d="M1335.365,766.575c52.559,10.73 -48.65,81.669 -71.706,91.899c-34.806,15.445 -57.823,17.999 -59.493,13.619c-1.753,-4.599 24.371,-44.601 58.848,-71.971c26.838,-21.305 36.339,-28.972 72.351,-33.548Z" style="fill:#eb50d3;"/><path d="M253.29,845.36c1.313,-0.079 1.614,-2.629 2.927,-2.708c6.288,-0.379 0.244,16.932 -0.238,18.312c-78.935,226.095 -80.233,225.212 -156.114,452.814c-14.208,42.617 -38.369,125.583 -44.112,120.258c-7.724,-7.161 68.851,-229.375 75.631,-249.051c94.211,-273.394 110.778,-313.014 121.905,-339.625Z" style="fill:#fc95f0;"/><path d="M722.538,1060.264c-24.708,22.817 -99.322,78.978 -128.632,92.133c-61.37,27.544 -89.934,9.88 -70.568,-54.331c34.808,-115.411 94.769,-182.665 75.41,-141.504c-6.793,14.442 -158.61,268.275 3.968,180.048c33.345,-18.096 112.828,-82.442 116.077,-81.087c1.859,0.775 1.887,3.966 3.746,4.741Z" style="fill:#fc95f0;"/><path d="M1713.548,62.7l6.47,1.71c-0.836,12.92 -29.897,339.666 -31.063,404.358c-0.014,0.785 -9.039,40.65 -8.821,4.316c0.242,-40.175 27.42,-396.474 33.414,-410.384Z" style="fill:#fc97f0;"/><path d="M612.33,877.064c7.53,-58.34 65.957,-41.018 67.425,-20.646c3.169,43.985 -60.131,73.729 -67.425,20.646Z" style="fill:#fec9fa;"/><path d="M1535.249,443.935c-14.034,-12.124 -12.265,-14.12 -11.062,-14.999c3.89,-2.843 152.141,112.784 155.498,123.062c3.496,10.704 -10.789,-2.89 -11.485,-3.553c-21.269,-20.239 -104.072,-82.379 -132.952,-104.51Z" style="fill:#fca5f2;"/><path d="M1734.428,543.195c-4.146,7.258 -22.131,40.125 -23.066,25.346c-0.23,-3.635 75.84,-137.492 82.421,-137.434c9.947,0.088 1.216,6.6 -59.355,112.087Z" style="fill:#fc96f0;"/><path d="M1617.841,1255.307c-22.696,21.741 -25.867,19.644 -26.616,17.221c-3.378,-10.931 67.061,-85.2 69.945,-66.674c0.968,6.221 -11.322,17.842 -43.329,49.453Z" style="fill:#eb51d3;"/><path d="M1781.204,914.58c-2.248,47.983 -60.729,-262.06 -55.401,-259.425c1.118,10.248 55.679,253.506 55.401,259.425Z" style="fill:#fc9af0;"/><path d="M1538.604,411.382c7.832,-8.407 9.521,-5.258 59.311,-5.268c1.625,-0 19.341,-0.004 20.291,0.863c1.1,1.004 0.7,3.085 1.8,4.089c-5.345,2.177 -10.253,4.177 -72.113,2.047c-3.096,-0.577 -6.193,-1.154 -9.289,-1.731Z" style="fill:#fcb6f5;"/><path d="M650.95,876.067c-13.931,13.488 -16.267,6.884 -16.49,5.511c-2.038,-12.582 30.714,-34.073 21.784,-12.83c-0.28,0.666 -0.392,0.542 -5.294,7.319Z" style="fill:#fc95f0;"/><path d="M1538.604,411.382c3.096,0.577 6.193,1.154 9.289,1.731c-2.135,1.638 -1.721,5.455 -3.856,7.093c-0.359,0.275 -24.283,-2.305 -27.526,-6.827c-9.547,-13.311 5.625,-3.228 22.093,-1.998Z" style="fill:#fdd0fa;"/><path d="M1675.574,289.28c0.056,2.01 0.546,19.467 -0.807,25.123c-1.875,-2.073 -5.726,-1.468 -7.602,-3.54c0,0 1.019,-15.371 1.108,-16.707c1.717,-0.939 4.078,1.883 5.794,0.944c0.422,-0.231 0.112,-0.431 1.506,-5.819Z" style="fill:#f7a9ed;"/><path d="M1713.548,62.7c0.161,-1.09 3.045,-20.556 8.982,-10.44c2.226,3.793 0.369,3.811 -2.511,12.15l-6.47,-1.71Z" style="fill:#fdb2f4;"/><path d="M1407.271,1269.793l-0.177,-5.209c0.904,-1.826 3.567,-2.341 4.471,-4.167c0.029,-0.058 -2.17,-4.47 2.96,-3.773c9.132,1.241 3.428,5.191 -1.324,13.09c-1.977,0.02 -3.954,0.039 -5.931,0.059Z" style="fill:#fdc8f9;"/><path d="M2046.768,1096.684c-3.05,8.077 -3.935,7.84 -2.958,16.499c-6.189,-2.624 -10.895,-0.968 -7.618,-6.753c0.735,-1.298 2.821,-1.42 3.556,-2.719c2.34,-2.343 4.679,-4.685 7.019,-7.028Z" style="fill:#fdbbf6;"/><path d="M1342.976,1202.156c-0.444,-1.68 -3.642,-1.557 -4.085,-3.237c-0.178,-0.675 0.351,-0.523 4.859,-7.25c0.955,0.754 2.597,-1.594 3.552,-0.841c0.883,0.697 -0.402,2.231 -0.366,3.355c0.216,6.788 -2.643,5.32 -3.961,7.972Z" style="fill:#fdc7f8;"/><path d="M2046.768,1096.684c-2.34,2.343 -4.679,4.685 -7.019,7.028c0.035,-0.993 0.435,-12.274 0.571,-12.411c4.574,-4.605 5.854,-1.018 6.448,5.383Z" style="fill:#fcb5f5;"/><path d="M1639.378,302.767c10.554,-4.836 10.898,-1.753 10.829,-0.886c-0.163,2.044 -10.088,7.202 -11.043,7.699c0.071,-2.271 0.143,-4.542 0.214,-6.812Z" style="fill:#fdbef7;"/><path d="M1494.423,1256.742c-0.346,4.029 5.225,0.733 4.882,4.73c-0.045,0.526 -0.174,2.024 -5.589,3.504c-5.682,1.553 0.214,-2.492 0.707,-8.234Z" style="fill:#fdcbfa;"/><path d="M1627.707,408.078c0.67,-0.122 14.07,-2.553 8.173,2.376c-0.522,0.437 -0.586,-0.17 -8.173,-2.376Z" style="fill:#fec9f9;"/><path d="M2032.753,1119.328c1.877,0.771 3.753,1.542 5.63,2.313l-2.843,2.858l-2.786,-5.171Z" style="fill:#fec4f7;"/><path d="M1556.645,428.376c-0.965,1.934 -1.929,3.868 -2.894,5.802c-0.051,-1.324 -2.638,-1.604 -2.689,-2.928c0,0 5.136,-2.644 5.583,-2.874Z" style="fill:#f284e2;"/></g></svg>